<svg xmlns="http://www.w3.org/2000/svg" width="16" height="16" fill="none" xmlns:v="https://vecta.io/nano"><g clip-path="url(#A)"><path fill="#fff" d="M0 0h16v16H0z"/><path d="M4.748 12.438v-.744l.896-.164V4.568l-.955-.164V3.66h1.945l.105.773a2.14 2.14 0 0 1 .768-.662c.305-.152.656-.229 1.055-.229.523 0 .971.143 1.342.428s.654.678.85 1.189.293 1.104.293 1.787v.123c0 .609-.1 1.143-.299 1.6s-.476.814-.844 1.072-.809.381-1.324.381a2.57 2.57 0 0 1-1.031-.193c-.293-.133-.543-.328-.75-.586v2.186l1.008.164v.744H4.748zm3.475-3.217c.547 0 .961-.199 1.242-.598s.422-.916.422-1.553v-.123c0-.484-.062-.91-.187-1.277s-.312-.662-.562-.873-.555-.316-.926-.316c-.328 0-.609.074-.844.223s-.424.352-.568.609V8.4c.145.262.332.465.563.609s.521.211.861.211z" fill="#000"/></g><defs><clipPath id="A"><path fill="#fff" d="M0 0h16v16H0z"/></clipPath></defs></svg>